<svg width="24" height="24" viewBox="0 0 24 24" fill="none" xmlns="http://www.w3.org/2000/svg">
  <path opacity="0.2"
    d="M5 2.5C4.446 2.5 4 2.946 4 3.5V21.5C4 22.054 4.446 22.5 5 22.5H19C19.554 22.5 20 22.054 20 21.5V8.5L14 2.5H5Z"
    fill="black" />
  <path d="M5 2C4.446 2 4 2.446 4 3V21C4 21.554 4.446 22 5 22H19C19.554 22 20 21.554 20 21V8L15 7L14 2H5Z"
    fill="#B36CFF" />
  <path opacity="0.2" d="M20 8.5L14 2.5V7.5C14 8.054 14.446 8.5 15 8.5H20Z" fill="black" />
  <path d="M20 8L14 2V7C14 7.554 14.446 8 15 8H20Z" fill="#CE9FFF" />
  <path opacity="0.2" d="M5 2C4.446 2 4 2.446 4 3V3.5C4 2.946 4.446 2.5 5 2.5H14V2H5Z" fill="white" />
  <g opacity="0.2">
    <path
      d="M12.0388 8.94598L12.0675 8.94904L12.0959 8.95342L12.1242 8.95889L12.1517 8.96545L12.1791 8.97332L12.206 8.98207L12.2322 8.99214L12.258 9.00307L12.2834 9.01511L12.3083 9.02823L12.3326 9.04223L12.3562 9.05732L12.3794 9.07307L12.402 9.08992L12.4236 9.10764L12.4448 9.12623L12.4654 9.1457L12.4851 9.16604L12.5041 9.18704L12.5223 9.2087L12.5273 9.21526L12.5315 9.22007L12.5363 9.22598L12.5407 9.23232L12.5424 9.23473L12.5564 9.25442L12.5724 9.27848L12.5872 9.30298L12.6015 9.32814L12.6146 9.35395L12.6264 9.37954L16.4981 16.0855L16.502 16.0923L16.5053 16.0993L16.5086 16.1063L16.5114 16.1133L16.5138 16.1205L16.5162 16.1277L16.518 16.1349L16.5197 16.1422L16.521 16.1494L16.5221 16.1568L16.5228 16.164L16.5234 16.1715V16.1787V16.1859L16.523 16.1933L16.5223 16.2006L16.5215 16.2078L16.5204 16.215L16.5188 16.222L16.5171 16.229L16.5151 16.236L16.5127 16.243L16.5103 16.2498L16.5075 16.2566L16.5044 16.2631L16.5011 16.2695L16.4974 16.276L16.4937 16.2822L16.4895 16.2883L16.4852 16.2942L16.4808 16.3001L16.476 16.3058L16.4709 16.3113L16.4655 16.3165L16.46 16.3215L16.4543 16.3266L16.4482 16.3312L16.4421 16.3358L16.4355 16.3399L16.4289 16.3438L15.3019 16.9946L15.2952 16.9983L15.2882 17.0018L15.2812 17.0049L15.2742 17.0078L15.2669 17.0104L15.2597 17.0126L15.2525 17.0145L15.2453 17.0161L15.2381 17.0176L15.2308 17.0185L15.2234 17.0193L15.2162 17.0198L15.2087 17.02L15.2015 17.0198L15.1941 17.0196L15.1869 17.0189L15.1797 17.018L15.1727 17.0167L15.1654 17.0152L15.1584 17.0134L15.1514 17.0115L15.1444 17.0093L15.1377 17.0067L15.1311 17.0038L15.1243 17.0008L15.118 16.9975L15.1114 16.994L15.1053 16.99L15.0992 16.9861L15.0932 16.9817L15.0873 16.9771L15.0817 16.9723L15.0762 16.9673L15.0709 16.962L15.0659 16.9566L15.0611 16.9507L15.0563 16.9448L15.0519 16.9384L15.0475 16.9321L15.0436 16.9253L11.978 11.6158L8.91247 16.9253L8.90853 16.9321L8.90416 16.9384L8.89978 16.9448L8.89497 16.9507L8.89016 16.9566L8.88512 16.962L8.87987 16.9673L8.87441 16.9723L8.86872 16.9771L8.86281 16.9817L8.85691 16.9861L8.85078 16.99L8.84466 16.994L8.83809 16.9975L8.83175 17.0008L8.82497 17.0038L8.81841 17.0067L8.81162 17.0093L8.80462 17.0115L8.79762 17.0134L8.79062 17.0152L8.78341 17.0167L8.77641 17.018L8.76919 17.0189L8.76197 17.0196L8.75453 17.0198L8.74731 17.02L8.73987 17.0198L8.73266 17.0193L8.72522 17.0185L8.718 17.0176L8.71078 17.0161L8.70356 17.0145L8.69634 17.0126L8.68912 17.0104L8.68191 17.0078L8.67491 17.0049L8.66791 17.0018L8.66091 16.9983L8.65412 16.9946L7.52712 16.3438L7.52056 16.3399L7.514 16.3358L7.50787 16.3312L7.50175 16.3266L7.49606 16.3215L7.49059 16.3165L7.48512 16.3113L7.48009 16.3058L7.47528 16.3001L7.47091 16.2942L7.46653 16.2883L7.46237 16.2822L7.45866 16.276L7.45494 16.2695L7.45166 16.2631L7.44859 16.2566L7.44575 16.2498L7.44334 16.243L7.44094 16.236L7.43897 16.229L7.43722 16.222L7.43569 16.215L7.43459 16.2078L7.43372 16.2006L7.43306 16.1933L7.43262 16.1859V16.1787V16.1715L7.43328 16.164L7.43394 16.1568L7.43503 16.1494L7.43634 16.1422L7.43809 16.1349L7.43984 16.1277L7.44225 16.1205L7.44466 16.1133L7.4475 16.1063L7.45078 16.0993L7.45406 16.0923L7.458 16.0855L11.3585 9.32967L11.3592 9.32814L11.3732 9.30298L11.3839 9.28548L11.4071 9.24545L11.411 9.23867L11.4154 9.23232L11.4198 9.22598L11.4246 9.22007L11.4294 9.21439L11.4344 9.2087L11.4399 9.20345L11.4454 9.19842L11.4506 9.19404L11.4565 9.18704L11.4756 9.16604L11.4952 9.1457L11.5156 9.12623L11.5368 9.10764L11.5587 9.08992L11.5812 9.07307L11.6042 9.05732L11.628 9.04223L11.6523 9.02823L11.677 9.01511L11.7024 9.00307L11.7282 8.99214L11.7547 8.98207L11.7816 8.97332L11.8087 8.96545L11.8365 8.95889L11.8645 8.95342L11.8929 8.94904L11.9218 8.94598L11.9509 8.94401L11.9802 8.94336L12.0097 8.94401L12.0388 8.94598Z"
      fill="black" />
    <path
      d="M12.0608 9.64569L12.0895 9.64875L12.1179 9.65313L12.1461 9.6586L12.1737 9.66516L12.201 9.67304L12.2279 9.68179L12.2542 9.69185L12.28 9.70279L12.3054 9.71482L12.3303 9.72794L12.3546 9.74194L12.3782 9.75704L12.4014 9.77279L12.4239 9.78963L12.4456 9.80735L12.4668 9.82594L12.4874 9.84541L12.5071 9.86575L12.5261 9.88675L12.5443 9.90841L12.5493 9.91497L12.5534 9.91979L12.5583 9.92569L12.5626 9.93203L12.5644 9.93444L12.5784 9.95413L12.5944 9.97819L12.6092 10.0027L12.6234 10.0278L12.6366 10.0537L12.6484 10.0793L16.52 16.7853L16.524 16.792L16.5273 16.799L16.5305 16.806L16.5334 16.813L16.5358 16.8203L16.5382 16.8275L16.5399 16.8347L16.5417 16.8419L16.543 16.8491L16.5441 16.8566L16.5448 16.8638L16.5454 16.8712V16.8784V16.8857L16.545 16.8931L16.5443 16.9003L16.5434 16.9075L16.5424 16.9148L16.5408 16.9218L16.5391 16.9288L16.5371 16.9358L16.5347 16.9428L16.5323 16.9495L16.5294 16.9563L16.5264 16.9629L16.5231 16.9692L16.5194 16.9758L16.5157 16.9819L16.5115 16.988L16.5071 16.9939L16.5028 16.9998L16.4979 17.0055L16.4929 17.011L16.4874 17.0163L16.482 17.0213L16.4763 17.0263L16.4702 17.0309L16.464 17.0355L16.4575 17.0397L16.4509 17.0436L15.3239 17.6944L15.3171 17.6981L15.3101 17.7016L15.3031 17.7047L15.2961 17.7075L15.2889 17.7101L15.2817 17.7123L15.2745 17.7143L15.2673 17.7158L15.26 17.7173L15.2528 17.7182L15.2454 17.7191L15.2382 17.7195L15.2307 17.7198L15.2235 17.7195L15.2161 17.7193L15.2089 17.7187L15.2016 17.7178L15.1946 17.7165L15.1874 17.7149L15.1804 17.7132L15.1734 17.7112L15.1664 17.709L15.1596 17.7064L15.1531 17.7036L15.1463 17.7005L15.1399 17.6972L15.1334 17.6937L15.1273 17.6898L15.1211 17.6858L15.1152 17.6815L15.1093 17.6769L15.1036 17.6721L15.0982 17.667L15.0929 17.6618L15.0879 17.6563L15.0831 17.6504L15.0783 17.6445L15.0739 17.6382L15.0695 17.6318L15.0656 17.625L12 12.3155L8.93443 17.625L8.93049 17.6318L8.92612 17.6382L8.92174 17.6445L8.91693 17.6504L8.91212 17.6563L8.90709 17.6618L8.90184 17.667L8.89637 17.6721L8.89068 17.6769L8.88477 17.6815L8.87887 17.6858L8.87274 17.6898L8.86662 17.6937L8.86005 17.6972L8.85371 17.7005L8.84693 17.7036L8.84037 17.7064L8.83359 17.709L8.82659 17.7112L8.81959 17.7132L8.81259 17.7149L8.80537 17.7165L8.79837 17.7178L8.79115 17.7187L8.78393 17.7193L8.77649 17.7195L8.76927 17.7198L8.76184 17.7195L8.75462 17.7191L8.74718 17.7182L8.73996 17.7173L8.73274 17.7158L8.72552 17.7143L8.7183 17.7123L8.71109 17.7101L8.70387 17.7075L8.69687 17.7047L8.68987 17.7016L8.68287 17.6981L8.67609 17.6944L7.54909 17.0436L7.54252 17.0397L7.53596 17.0355L7.52984 17.0309L7.52371 17.0263L7.51802 17.0213L7.51255 17.0163L7.50709 17.011L7.50205 17.0055L7.49724 16.9998L7.49287 16.9939L7.48849 16.988L7.48434 16.9819L7.48062 16.9758L7.4769 16.9692L7.47362 16.9629L7.47055 16.9563L7.46771 16.9495L7.4653 16.9428L7.4629 16.9358L7.46093 16.9288L7.45918 16.9218L7.45765 16.9148L7.45655 16.9075L7.45568 16.9003L7.45502 16.8931L7.45459 16.8857V16.8784V16.8712L7.45524 16.8638L7.4559 16.8566L7.45699 16.8491L7.4583 16.8419L7.46005 16.8347L7.4618 16.8275L7.46421 16.8203L7.46662 16.813L7.46946 16.806L7.47274 16.799L7.47602 16.792L7.47996 16.7853L11.3805 10.0294L11.3812 10.0278L11.3952 10.0027L11.4059 9.98519L11.4291 9.94516L11.433 9.93838L11.4374 9.93203L11.4418 9.92569L11.4466 9.91979L11.4514 9.9141L11.4564 9.90841L11.4619 9.90316L11.4674 9.89813L11.4726 9.89375L11.4785 9.88675L11.4975 9.86575L11.5172 9.84541L11.5376 9.82594L11.5588 9.80735L11.5807 9.78963L11.6032 9.77279L11.6262 9.75704L11.65 9.74194L11.6743 9.72794L11.699 9.71482L11.7244 9.70279L11.7502 9.69185L11.7767 9.68179L11.8036 9.67304L11.8307 9.66516L11.8585 9.6586L11.8865 9.65313L11.9149 9.64875L11.9438 9.64569L11.9729 9.64372L12.0022 9.64307L12.0317 9.64372L12.0608 9.64569Z"
      fill="black" />
    <path
      d="M12.0672 10.4211L12.0958 10.4242L12.1243 10.4285L12.1525 10.434L12.18 10.4406L12.2074 10.4484L12.2343 10.4574L12.2605 10.4672L12.2863 10.4782L12.3117 10.4904L12.3367 10.5033L12.3609 10.5173L12.3846 10.5324L12.4078 10.5484L12.4303 10.5652L12.4519 10.583L12.4732 10.6016L12.4937 10.6208L12.5134 10.6412L12.5324 10.6622L12.5506 10.684L12.5556 10.6904L12.5598 10.6952L12.5646 10.7013L12.569 10.7074L12.5707 10.7101L12.5847 10.7297L12.6007 10.7536L12.6156 10.7781L12.6298 10.8035L12.6429 10.8293L12.6547 10.8547L16.5264 17.5607L16.5303 17.5677L16.5336 17.5744L16.5369 17.5814L16.5397 17.5887L16.5421 17.5957L16.5445 17.6029L16.5463 17.6101L16.548 17.6173L16.5493 17.6245L16.5504 17.632L16.5511 17.6392L16.5518 17.6466V17.6538V17.6613L16.5513 17.6685L16.5507 17.6757L16.5498 17.6829L16.5487 17.6902L16.5472 17.6972L16.5454 17.7044L16.5434 17.7114L16.541 17.7182L16.5386 17.7249L16.5358 17.7317L16.5327 17.7383L16.5294 17.7448L16.5257 17.7512L16.522 17.7573L16.5178 17.7634L16.5135 17.7696L16.5091 17.7752L16.5043 17.7809L16.4993 17.7864L16.4938 17.7917L16.4883 17.7967L16.4826 17.8017L16.4765 17.8063L16.4704 17.8109L16.4638 17.8151L16.4573 17.8192L15.3303 18.4698L15.3235 18.4735L15.3165 18.477L15.3095 18.4803L15.3025 18.4831L15.2953 18.4855L15.288 18.4877L15.2808 18.4897L15.2736 18.4914L15.2664 18.4927L15.2592 18.4938L15.2517 18.4945L15.2445 18.4949L15.2371 18.4952H15.2298L15.2224 18.4947L15.2152 18.4941L15.208 18.4932L15.201 18.4919L15.1938 18.4906L15.1868 18.4888L15.1798 18.4866L15.1728 18.4844L15.166 18.4818L15.1594 18.4792L15.1526 18.4761L15.1463 18.4726L15.1397 18.4691L15.1336 18.4654L15.1275 18.4612L15.1216 18.4569L15.1157 18.4523L15.11 18.4475L15.1045 18.4424L15.0993 18.4372L15.0942 18.4317L15.0894 18.4258L15.0846 18.4199L15.0802 18.4138L15.0758 18.4072L15.0719 18.4007L12.0063 13.0909L8.94078 18.4007L8.93684 18.4072L8.93247 18.4138L8.92809 18.4199L8.92328 18.4258L8.91847 18.4317L8.91344 18.4372L8.90819 18.4424L8.90272 18.4475L8.89703 18.4523L8.89113 18.4569L8.88522 18.4612L8.87909 18.4654L8.87297 18.4691L8.86641 18.4726L8.86006 18.4761L8.85328 18.4792L8.84672 18.4818L8.83994 18.4844L8.83294 18.4866L8.82594 18.4888L8.81894 18.4906L8.81172 18.4919L8.80472 18.4932L8.7975 18.4941L8.79028 18.4947L8.78284 18.4952H8.77563L8.76819 18.4949L8.76097 18.4945L8.75353 18.4938L8.74631 18.4927L8.73909 18.4914L8.73188 18.4897L8.72466 18.4877L8.71744 18.4855L8.71022 18.4831L8.70322 18.4803L8.69622 18.477L8.68922 18.4735L8.68244 18.4698L7.55544 17.8192L7.54888 17.8151L7.54231 17.8109L7.53619 17.8063L7.53006 17.8017L7.52438 17.7967L7.51891 17.7917L7.51344 17.7864L7.50841 17.7809L7.50359 17.7752L7.49922 17.7696L7.49484 17.7634L7.49069 17.7573L7.48697 17.7512L7.48325 17.7448L7.47997 17.7383L7.47691 17.7317L7.47406 17.7249L7.47166 17.7182L7.46925 17.7114L7.46728 17.7044L7.46553 17.6972L7.464 17.6902L7.46291 17.6829L7.46203 17.6757L7.46138 17.6685L7.46094 17.6613V17.6538V17.6466L7.46159 17.6392L7.46225 17.632L7.46334 17.6245L7.46466 17.6173L7.46641 17.6101L7.46816 17.6029L7.47056 17.5957L7.47297 17.5887L7.47581 17.5814L7.47909 17.5744L7.48238 17.5677L7.48631 17.5607L11.3868 10.8048L11.3875 10.8035L11.4015 10.7781L11.4122 10.7606L11.4354 10.7206L11.4393 10.714L11.4437 10.7074L11.4481 10.7013L11.4529 10.6952L11.4577 10.6895L11.4628 10.684L11.4682 10.6788L11.4737 10.6735L11.4789 10.6692L11.4848 10.6622L11.5039 10.6412L11.5236 10.6208L11.5439 10.6016L11.5651 10.583L11.587 10.5652L11.6095 10.5484L11.6325 10.5324L11.6563 10.5173L11.6806 10.5033L11.7053 10.4904L11.7307 10.4782L11.7565 10.4672L11.783 10.4574L11.8099 10.4484L11.837 10.4406L11.8648 10.434L11.8928 10.4285L11.9213 10.4242L11.9501 10.4211L11.9792 10.4191L12.0085 10.4185L12.0381 10.4191L12.0672 10.4211Z"
      fill="black" />
  </g>
  <path
    d="M12.0388 7.94598L12.0675 7.94904L12.0959 7.95342L12.1242 7.95889L12.1517 7.96545L12.1791 7.97332L12.206 7.98207L12.2322 7.99214L12.258 8.00307L12.2834 8.01511L12.3083 8.02823L12.3326 8.04223L12.3562 8.05732L12.3794 8.07307L12.402 8.08992L12.4236 8.10764L12.4448 8.12623L12.4654 8.1457L12.4851 8.16604L12.5041 8.18704L12.5223 8.2087L12.5273 8.21526L12.5315 8.22007L12.5363 8.22598L12.5407 8.23232L12.5424 8.23473L12.5564 8.25442L12.5724 8.27848L12.5872 8.30298L12.6015 8.32814L12.6146 8.35395L12.6264 8.37954L16.4981 15.0855L16.502 15.0923L16.5053 15.0993L16.5086 15.1063L16.5114 15.1133L16.5138 15.1205L16.5162 15.1277L16.518 15.1349L16.5197 15.1422L16.521 15.1494L16.5221 15.1568L16.5228 15.164L16.5234 15.1715V15.1787V15.1859L16.523 15.1933L16.5223 15.2006L16.5215 15.2078L16.5204 15.215L16.5188 15.222L16.5171 15.229L16.5151 15.236L16.5127 15.243L16.5103 15.2498L16.5075 15.2566L16.5044 15.2631L16.5011 15.2695L16.4974 15.276L16.4937 15.2822L16.4895 15.2883L16.4852 15.2942L16.4808 15.3001L16.476 15.3058L16.4709 15.3113L16.4655 15.3165L16.46 15.3215L16.4543 15.3266L16.4482 15.3312L16.4421 15.3358L16.4355 15.3399L16.4289 15.3438L15.3019 15.9946L15.2952 15.9983L15.2882 16.0018L15.2812 16.0049L15.2742 16.0078L15.2669 16.0104L15.2597 16.0126L15.2525 16.0145L15.2453 16.0161L15.2381 16.0176L15.2308 16.0185L15.2234 16.0193L15.2162 16.0198L15.2087 16.02L15.2015 16.0198L15.1941 16.0196L15.1869 16.0189L15.1797 16.018L15.1727 16.0167L15.1654 16.0152L15.1584 16.0134L15.1514 16.0115L15.1444 16.0093L15.1377 16.0067L15.1311 16.0038L15.1243 16.0008L15.118 15.9975L15.1114 15.994L15.1053 15.99L15.0992 15.9861L15.0932 15.9817L15.0873 15.9771L15.0817 15.9723L15.0762 15.9673L15.0709 15.962L15.0659 15.9566L15.0611 15.9507L15.0563 15.9448L15.0519 15.9384L15.0475 15.9321L15.0436 15.9253L11.978 10.6158L8.91247 15.9253L8.90853 15.9321L8.90416 15.9384L8.89978 15.9448L8.89497 15.9507L8.89016 15.9566L8.88512 15.962L8.87987 15.9673L8.87441 15.9723L8.86872 15.9771L8.86281 15.9817L8.85691 15.9861L8.85078 15.99L8.84466 15.994L8.83809 15.9975L8.83175 16.0008L8.82497 16.0038L8.81841 16.0067L8.81162 16.0093L8.80462 16.0115L8.79762 16.0134L8.79062 16.0152L8.78341 16.0167L8.77641 16.018L8.76919 16.0189L8.76197 16.0196L8.75453 16.0198L8.74731 16.02L8.73987 16.0198L8.73266 16.0193L8.72522 16.0185L8.718 16.0176L8.71078 16.0161L8.70356 16.0145L8.69634 16.0126L8.68912 16.0104L8.68191 16.0078L8.67491 16.0049L8.66791 16.0018L8.66091 15.9983L8.65412 15.9946L7.52712 15.3438L7.52056 15.3399L7.514 15.3358L7.50787 15.3312L7.50175 15.3266L7.49606 15.3215L7.49059 15.3165L7.48512 15.3113L7.48009 15.3058L7.47528 15.3001L7.47091 15.2942L7.46653 15.2883L7.46237 15.2822L7.45866 15.276L7.45494 15.2695L7.45166 15.2631L7.44859 15.2566L7.44575 15.2498L7.44334 15.243L7.44094 15.236L7.43897 15.229L7.43722 15.222L7.43569 15.215L7.43459 15.2078L7.43372 15.2006L7.43306 15.1933L7.43262 15.1859V15.1787V15.1715L7.43328 15.164L7.43394 15.1568L7.43503 15.1494L7.43634 15.1422L7.43809 15.1349L7.43984 15.1277L7.44225 15.1205L7.44466 15.1133L7.4475 15.1063L7.45078 15.0993L7.45406 15.0923L7.458 15.0855L11.3585 8.32967L11.3592 8.32814L11.3732 8.30298L11.3839 8.28548L11.4071 8.24545L11.411 8.23867L11.4154 8.23232L11.4198 8.22598L11.4246 8.22007L11.4294 8.21439L11.4344 8.2087L11.4399 8.20345L11.4454 8.19842L11.4506 8.19404L11.4565 8.18704L11.4756 8.16604L11.4952 8.1457L11.5156 8.12623L11.5368 8.10764L11.5587 8.08992L11.5812 8.07307L11.6042 8.05732L11.628 8.04223L11.6523 8.02823L11.677 8.01511L11.7024 8.00307L11.7282 7.99214L11.7547 7.98207L11.7816 7.97332L11.8087 7.96545L11.8365 7.95889L11.8645 7.95342L11.8929 7.94904L11.9218 7.94598L11.9509 7.94401L11.9802 7.94336L12.0097 7.94401L12.0388 7.94598Z"
    fill="#E4E4E4" />
  <path
    d="M12.0608 8.64569L12.0895 8.64875L12.1179 8.65313L12.1461 8.6586L12.1737 8.66516L12.201 8.67304L12.2279 8.68179L12.2542 8.69185L12.28 8.70279L12.3054 8.71482L12.3303 8.72794L12.3546 8.74194L12.3782 8.75704L12.4014 8.77279L12.4239 8.78963L12.4456 8.80735L12.4668 8.82594L12.4874 8.84541L12.5071 8.86575L12.5261 8.88675L12.5443 8.90841L12.5493 8.91497L12.5534 8.91979L12.5583 8.92569L12.5626 8.93203L12.5644 8.93444L12.5784 8.95413L12.5944 8.97819L12.6092 9.00269L12.6234 9.02785L12.6366 9.05366L12.6484 9.07925L16.52 15.7853L16.524 15.792L16.5273 15.799L16.5305 15.806L16.5334 15.813L16.5358 15.8203L16.5382 15.8275L16.5399 15.8347L16.5417 15.8419L16.543 15.8491L16.5441 15.8566L16.5448 15.8638L16.5454 15.8712V15.8784V15.8857L16.545 15.8931L16.5443 15.9003L16.5435 15.9075L16.5424 15.9148L16.5408 15.9218L16.5391 15.9288L16.5371 15.9358L16.5347 15.9428L16.5323 15.9495L16.5294 15.9563L16.5264 15.9629L16.5231 15.9692L16.5194 15.9758L16.5157 15.9819L16.5115 15.988L16.5071 15.9939L16.5028 15.9998L16.4979 16.0055L16.4929 16.011L16.4874 16.0163L16.482 16.0213L16.4763 16.0263L16.4702 16.0309L16.464 16.0355L16.4575 16.0397L16.4509 16.0436L15.3239 16.6944L15.3171 16.6981L15.3101 16.7016L15.3031 16.7047L15.2961 16.7075L15.2889 16.7101L15.2817 16.7123L15.2745 16.7143L15.2673 16.7158L15.26 16.7173L15.2528 16.7182L15.2454 16.7191L15.2382 16.7195L15.2307 16.7198L15.2235 16.7195L15.2161 16.7193L15.2089 16.7187L15.2016 16.7178L15.1946 16.7165L15.1874 16.7149L15.1804 16.7132L15.1734 16.7112L15.1664 16.709L15.1596 16.7064L15.1531 16.7036L15.1463 16.7005L15.1399 16.6972L15.1334 16.6937L15.1273 16.6898L15.1211 16.6858L15.1152 16.6815L15.1093 16.6769L15.1036 16.6721L15.0982 16.667L15.0929 16.6618L15.0879 16.6563L15.0831 16.6504L15.0783 16.6445L15.0739 16.6382L15.0695 16.6318L15.0656 16.625L12 11.3155L8.93443 16.625L8.93049 16.6318L8.92612 16.6382L8.92174 16.6445L8.91693 16.6504L8.91212 16.6563L8.90709 16.6618L8.90184 16.667L8.89637 16.6721L8.89068 16.6769L8.88477 16.6815L8.87887 16.6858L8.87274 16.6898L8.86662 16.6937L8.86005 16.6972L8.85371 16.7005L8.84693 16.7036L8.84037 16.7064L8.83359 16.709L8.82659 16.7112L8.81959 16.7132L8.81259 16.7149L8.80537 16.7165L8.79837 16.7178L8.79115 16.7187L8.78393 16.7193L8.77649 16.7195L8.76927 16.7198L8.76184 16.7195L8.75462 16.7191L8.74718 16.7182L8.73996 16.7173L8.73274 16.7158L8.72552 16.7143L8.7183 16.7123L8.71109 16.7101L8.70387 16.7075L8.69687 16.7047L8.68987 16.7016L8.68287 16.6981L8.67609 16.6944L7.54909 16.0436L7.54252 16.0397L7.53596 16.0355L7.52984 16.0309L7.52371 16.0263L7.51802 16.0213L7.51255 16.0163L7.50709 16.011L7.50205 16.0055L7.49724 15.9998L7.49287 15.9939L7.48849 15.988L7.48434 15.9819L7.48062 15.9758L7.4769 15.9692L7.47362 15.9629L7.47055 15.9563L7.46771 15.9495L7.4653 15.9428L7.4629 15.9358L7.46093 15.9288L7.45918 15.9218L7.45765 15.9148L7.45655 15.9075L7.45568 15.9003L7.45502 15.8931L7.45459 15.8857V15.8784V15.8712L7.45524 15.8638L7.4559 15.8566L7.45699 15.8491L7.4583 15.8419L7.46005 15.8347L7.4618 15.8275L7.46421 15.8203L7.46662 15.813L7.46946 15.806L7.47274 15.799L7.47602 15.792L7.47996 15.7853L11.3805 9.02938L11.3812 9.02785L11.3952 9.00269L11.4059 8.98519L11.4291 8.94516L11.433 8.93838L11.4374 8.93203L11.4418 8.92569L11.4466 8.91979L11.4514 8.9141L11.4564 8.90841L11.4619 8.90316L11.4674 8.89813L11.4726 8.89375L11.4785 8.88675L11.4975 8.86575L11.5172 8.84541L11.5376 8.82594L11.5588 8.80735L11.5807 8.78963L11.6032 8.77279L11.6262 8.75704L11.65 8.74194L11.6743 8.72794L11.699 8.71482L11.7244 8.70279L11.7502 8.69185L11.7767 8.68179L11.8036 8.67304L11.8307 8.66516L11.8585 8.6586L11.8865 8.65313L11.9149 8.64875L11.9438 8.64569L11.9729 8.64372L12.0022 8.64307L12.0317 8.64372L12.0608 8.64569Z"
    fill="#E4E4E4" />
  <path
    d="M12.0672 9.42059L12.0958 9.42366L12.1243 9.42803L12.1525 9.4335L12.18 9.44006L12.2074 9.44794L12.2343 9.45691L12.2605 9.46675L12.2863 9.47769L12.3117 9.48994L12.3367 9.50284L12.3609 9.51684L12.3846 9.53194L12.4078 9.54791L12.4303 9.56475L12.4519 9.58247L12.4732 9.60106L12.4937 9.62031L12.5134 9.64066L12.5324 9.66166L12.5506 9.68353L12.5556 9.68987L12.5598 9.69469L12.5646 9.70081L12.569 9.70694L12.5707 9.70956L12.5847 9.72925L12.6007 9.75309L12.6156 9.77759L12.6298 9.80297L12.6429 9.82878L12.6547 9.85416L16.5264 16.5602L16.5303 16.5672L16.5336 16.5739L16.5369 16.5809L16.5397 16.5882L16.5421 16.5952L16.5445 16.6024L16.5463 16.6096L16.548 16.6168L16.5493 16.624L16.5504 16.6315L16.5511 16.6387L16.5518 16.6461V16.6533V16.6608L16.5513 16.668L16.5507 16.6752L16.5498 16.6824L16.5487 16.6897L16.5472 16.6967L16.5454 16.7039L16.5434 16.7109L16.541 16.7177L16.5386 16.7244L16.5358 16.7312L16.5327 16.7378L16.5294 16.7443L16.5257 16.7507L16.522 16.7568L16.5178 16.7629L16.5135 16.7691L16.5091 16.7747L16.5043 16.7804L16.4993 16.7859L16.4938 16.7912L16.4883 16.7962L16.4826 16.8012L16.4765 16.8058L16.4704 16.8104L16.4638 16.8146L16.4573 16.8187L15.3303 17.4693L15.3235 17.473L15.3165 17.4765L15.3095 17.4798L15.3025 17.4826L15.2953 17.485L15.288 17.4872L15.2808 17.4892L15.2736 17.4909L15.2664 17.4922L15.2592 17.4933L15.2517 17.494L15.2445 17.4944L15.2371 17.4947H15.2298L15.2224 17.4942L15.2152 17.4936L15.208 17.4927L15.201 17.4914L15.1938 17.4901L15.1868 17.4883L15.1798 17.4861L15.1728 17.4839L15.166 17.4813L15.1594 17.4787L15.1526 17.4756L15.1463 17.4721L15.1397 17.4686L15.1336 17.4649L15.1275 17.4607L15.1216 17.4564L15.1157 17.4518L15.11 17.447L15.1045 17.4419L15.0993 17.4367L15.0942 17.4312L15.0894 17.4253L15.0846 17.4194L15.0802 17.4133L15.0758 17.4067L15.0719 17.4002L12.0063 12.0904L8.94078 17.4002L8.93684 17.4067L8.93247 17.4133L8.92809 17.4194L8.92328 17.4253L8.91847 17.4312L8.91344 17.4367L8.90819 17.4419L8.90272 17.447L8.89703 17.4518L8.89113 17.4564L8.88522 17.4607L8.87909 17.4649L8.87297 17.4686L8.86641 17.4721L8.86006 17.4756L8.85328 17.4787L8.84672 17.4813L8.83994 17.4839L8.83294 17.4861L8.82594 17.4883L8.81894 17.4901L8.81172 17.4914L8.80472 17.4927L8.7975 17.4936L8.79028 17.4942L8.78284 17.4947H8.77563L8.76819 17.4944L8.76097 17.494L8.75353 17.4933L8.74631 17.4922L8.73909 17.4909L8.73188 17.4892L8.72466 17.4872L8.71744 17.485L8.71022 17.4826L8.70322 17.4798L8.69622 17.4765L8.68922 17.473L8.68244 17.4693L7.55544 16.8187L7.54888 16.8146L7.54231 16.8104L7.53619 16.8058L7.53006 16.8012L7.52438 16.7962L7.51891 16.7912L7.51344 16.7859L7.50841 16.7804L7.50359 16.7747L7.49922 16.7691L7.49484 16.7629L7.49069 16.7568L7.48697 16.7507L7.48325 16.7443L7.47997 16.7378L7.47691 16.7312L7.47406 16.7244L7.47166 16.7177L7.46925 16.7109L7.46728 16.7039L7.46553 16.6967L7.464 16.6897L7.46291 16.6824L7.46203 16.6752L7.46138 16.668L7.46094 16.6608V16.6533V16.6461L7.46159 16.6387L7.46225 16.6315L7.46334 16.624L7.46466 16.6168L7.46641 16.6096L7.46816 16.6024L7.47056 16.5952L7.47297 16.5882L7.47581 16.5809L7.47909 16.5739L7.48238 16.5672L7.48631 16.5602L11.3868 9.80428L11.3875 9.80297L11.4015 9.77759L11.4122 9.76009L11.4354 9.72006L11.4393 9.7135L11.4437 9.70694L11.4481 9.70081L11.4529 9.69469L11.4577 9.689L11.4628 9.68353L11.4682 9.67828L11.4737 9.67303L11.4789 9.66866L11.4848 9.66166L11.5039 9.64066L11.5236 9.62031L11.5439 9.60106L11.5651 9.58247L11.587 9.56475L11.6095 9.54791L11.6325 9.53194L11.6563 9.51684L11.6806 9.50284L11.7053 9.48994L11.7307 9.47769L11.7565 9.46675L11.783 9.45691L11.8099 9.44794L11.837 9.44006L11.8648 9.4335L11.8928 9.42803L11.9213 9.42366L11.9501 9.42059L11.9792 9.41862L12.0085 9.41797L12.0381 9.41862L12.0672 9.42059Z"
    fill="#E4E4E4" />
</svg>