<svg width="24" height="24" viewBox="0 0 24 24" fill="none" xmlns="http://www.w3.org/2000/svg">
  <path opacity="0.2"
    d="M12 23.25C18.0061 23.25 22.875 18.3811 22.875 12.375C22.875 6.3689 18.0061 1.5 12 1.5C5.9939 1.5 1.125 6.3689 1.125 12.375C1.125 18.3811 5.9939 23.25 12 23.25Z"
    fill="black" />
  <path
    d="M12 22.875C18.0061 22.875 22.875 18.0061 22.875 12C22.875 5.9939 18.0061 1.125 12 1.125C5.9939 1.125 1.125 5.9939 1.125 12C1.125 18.0061 5.9939 22.875 12 22.875Z"
    fill="#F44336" />
  <path opacity="0.2"
    d="M11.9822 3.75014C11.6842 3.75478 11.4002 3.87709 11.1925 4.09021C10.9849 4.30334 10.8706 4.58986 10.8748 4.88686V11.6134C10.8727 11.762 10.9003 11.9094 10.9558 12.0473C11.0114 12.1851 11.094 12.3106 11.1986 12.4164C11.3033 12.5222 11.428 12.6062 11.5656 12.6635C11.7031 12.7208 11.8507 12.7504 11.9998 12.7504C12.1489 12.7504 12.2965 12.7208 12.4341 12.6635C12.5716 12.6062 12.6963 12.5222 12.801 12.4164C12.9057 12.3106 12.9882 12.1851 13.0438 12.0473C13.0994 11.9094 13.1269 11.762 13.1248 11.6134V4.88686C13.1269 4.73685 13.0988 4.58794 13.0421 4.44896C12.9854 4.30997 12.9013 4.18374 12.7948 4.07774C12.6882 3.97174 12.5614 3.88813 12.4218 3.83185C12.2823 3.77558 12.1328 3.74779 11.9822 3.75014ZM8.2425 5.62514C8.02765 5.63189 7.81924 5.70001 7.64191 5.82143C4.75747 7.73679 3.4622 11.3261 4.45734 14.6412C5.45248 17.9564 8.50897 20.2381 11.972 20.2501C15.435 20.2622 18.5094 18.0021 19.5277 14.694C20.5459 11.3859 19.2741 7.78763 16.4031 5.85219C16.2807 5.76864 16.1429 5.71011 15.9977 5.67997C15.8525 5.64982 15.7027 5.64866 15.5571 5.67655C15.4115 5.70444 15.2728 5.76082 15.149 5.84246C15.0252 5.9241 14.9188 6.02938 14.8359 6.15226C14.753 6.27514 14.6952 6.41319 14.6659 6.55846C14.6365 6.70374 14.6362 6.85339 14.6649 6.99879C14.6936 7.1442 14.7508 7.2825 14.8331 7.40575C14.9155 7.52899 15.0214 7.63475 15.1448 7.71693C17.2024 9.10398 18.1055 11.6611 17.3758 14.0319C16.646 16.4027 14.4626 18.0103 11.9808 18.0016C9.49898 17.9929 7.3253 16.3696 6.61213 13.9938C5.89895 11.618 6.81987 9.06908 8.88703 7.69643C9.09473 7.56361 9.25304 7.36629 9.3376 7.13479C9.42217 6.9033 9.42831 6.65045 9.35508 6.41513C9.28186 6.1798 9.13332 5.97503 8.9323 5.8323C8.73129 5.68957 8.48893 5.61679 8.2425 5.62514Z"
    fill="black" />
  <path
    d="M11.9822 3.37514C11.6842 3.37978 11.4002 3.50209 11.1925 3.71521C10.9849 3.92834 10.8706 4.21486 10.8748 4.51186V11.2384C10.8727 11.387 10.9003 11.5344 10.9558 11.6723C11.0114 11.8101 11.094 11.9356 11.1986 12.0414C11.3033 12.1472 11.428 12.2312 11.5656 12.2885C11.7031 12.3458 11.8507 12.3754 11.9998 12.3754C12.1489 12.3754 12.2965 12.3458 12.4341 12.2885C12.5716 12.2312 12.6963 12.1472 12.801 12.0414C12.9057 11.9356 12.9882 11.8101 13.0438 11.6723C13.0994 11.5344 13.1269 11.387 13.1248 11.2384V4.51186C13.1269 4.36185 13.0988 4.21294 13.0421 4.07396C12.9854 3.93497 12.9013 3.80874 12.7948 3.70274C12.6882 3.59674 12.5614 3.51313 12.4218 3.45685C12.2823 3.40058 12.1328 3.37279 11.9822 3.37514ZM8.2425 5.25014C8.02765 5.25689 7.81924 5.32501 7.64191 5.44643C4.75747 7.36179 3.4622 10.9511 4.45734 14.2662C5.45248 17.5814 8.50897 19.8631 11.972 19.8751C15.435 19.8872 18.5094 17.6271 19.5277 14.319C20.5459 11.0109 19.2741 7.41263 16.4031 5.47719C16.2807 5.39363 16.1429 5.3351 15.9977 5.30496C15.8525 5.27481 15.7027 5.27365 15.5571 5.30153C15.4114 5.32942 15.2728 5.3858 15.149 5.46744C15.0252 5.54908 14.9188 5.65437 14.8359 5.77725C14.753 5.90013 14.6952 6.03817 14.6658 6.18346C14.6365 6.32874 14.6361 6.47838 14.6649 6.62379C14.6936 6.7692 14.7507 6.9075 14.8331 7.03075C14.9155 7.15399 15.0214 7.25975 15.1448 7.34193C17.2024 8.72898 18.1055 11.2861 17.3758 13.6569C16.646 16.0277 14.4626 17.6353 11.9808 17.6266C9.49898 17.6179 7.3253 15.9946 6.61213 13.6188C5.89895 11.243 6.81987 8.69408 8.88703 7.32143C9.09473 7.18861 9.25304 6.99129 9.3376 6.75979C9.42217 6.5283 9.42831 6.27545 9.35508 6.04013C9.28186 5.8048 9.13332 5.60003 8.9323 5.4573C8.73129 5.31457 8.48893 5.24179 8.2425 5.25014Z"
    fill="white" />
  <path opacity="0.2"
    d="M12 1.125C9.11577 1.125 6.34967 2.27076 4.31021 4.31021C2.27076 6.34967 1.125 9.11577 1.125 12C1.12668 12.0611 1.12888 12.1221 1.13159 12.1831C1.18188 9.3334 2.3489 6.61734 4.38151 4.61938C6.41412 2.62143 9.14985 1.50128 12 1.5C14.85 1.50206 17.5853 2.62285 19.6174 4.62119C21.6494 6.61954 22.8158 9.33572 22.8655 12.1853C22.8692 12.1236 22.8724 12.0618 22.875 12C22.875 9.11577 21.7292 6.34967 19.6898 4.31021C17.6503 2.27076 14.8842 1.125 12 1.125Z"
    fill="white" />
</svg>