<svg width="70" height="71" viewBox="0 0 70 71" fill="none" xmlns="http://www.w3.org/2000/svg">
  <path
    d="M32.3723 1.17383C33.8335 0.436018 35.5585 0.435114 37.0198 1.17285C37.9153 1.62499 38.6598 2.32945 39.1614 3.19824L66.3918 50.3633C66.9441 51.3198 66.6168 52.5434 65.6604 53.0957V53.0957C64.8705 53.5513 63.8608 53.2798 63.406 52.4894L40.9729 13.5068C40.2699 12.2852 39.2253 11.2952 37.968 10.6582C35.9106 9.61605 33.4795 9.61601 31.4221 10.6582C30.1648 11.2951 29.1203 12.2852 28.4172 13.5068L5.98172 52.4911C5.52776 53.2799 4.51989 53.5507 3.73169 53.0957V53.0957C2.77524 52.5434 2.44799 51.3198 3.00024 50.3633L30.2317 3.19727C30.7332 2.32886 31.4771 1.62586 32.3723 1.17383Z"
    fill="white" />
  <path fill-rule="evenodd" clip-rule="evenodd"
    d="M37.0198 14.3646C35.5585 13.6269 33.8337 13.6269 32.3724 14.3647V14.3647C31.477 14.8168 30.7329 15.5203 30.2314 16.389L3.50001 62.689C2.67158 64.1239 3.1632 65.9586 4.59809 66.7871L9.79426 69.7871C11.2291 70.6155 13.0639 70.1239 13.8923 68.689L33.83 34.1558C34.2149 33.4891 35.1772 33.4891 35.5621 34.1558L55.5 68.689C56.3285 70.1239 58.1632 70.6155 59.5981 69.7871L64.7943 66.7871C66.2291 65.9586 66.7208 64.1239 65.8923 62.689L39.1611 16.3892C38.6595 15.5204 37.9153 14.8168 37.0198 14.3646V14.3646Z"
    fill="white" />
</svg>