<svg width="70" height="71" viewBox="0 0 70 71" fill="none" xmlns="http://www.w3.org/2000/svg">
  <path
    d="M32.3722 1.17394C33.8334 0.436126 35.5584 0.435222 37.0196 1.17296C37.9151 1.6251 38.6596 2.32956 39.1612 3.19835L66.3917 50.3634C66.9439 51.3199 66.6167 52.5435 65.6602 53.0958V53.0958C64.8703 53.5514 63.8606 53.2799 63.4058 52.4895L40.9727 13.5069C40.2697 12.2853 39.2252 11.2953 37.9679 10.6583C35.9104 9.61616 33.4794 9.61612 31.422 10.6583C30.1646 11.2952 29.1201 12.2853 28.4171 13.5069L5.98156 52.4912C5.5276 53.28 4.51973 53.5508 3.73153 53.0958V53.0958C2.77508 52.5435 2.44783 51.3199 3.00008 50.3634L30.2315 3.19737C30.733 2.32897 31.477 1.62597 32.3722 1.17394Z"
    fill="black" />
  <path fill-rule="evenodd" clip-rule="evenodd"
    d="M37.0198 14.3646C35.5585 13.6269 33.8337 13.6269 32.3724 14.3647V14.3647C31.477 14.8168 30.7329 15.5203 30.2314 16.389L3.50001 62.689C2.67158 64.1239 3.1632 65.9586 4.59809 66.7871L9.79426 69.7871C11.2291 70.6155 13.0639 70.1239 13.8923 68.689L33.83 34.1558C34.2149 33.4891 35.1772 33.4891 35.5621 34.1558L55.5 68.689C56.3285 70.1239 58.1632 70.6155 59.5981 69.7871L64.7943 66.7871C66.2291 65.9586 66.7208 64.1239 65.8923 62.689L39.1611 16.3892C38.6595 15.5204 37.9153 14.8168 37.0198 14.3646V14.3646Z"
    fill="black" />
</svg>