<svg width="100" height="100" viewBox="0 0 100 100" fill="none" xmlns="http://www.w3.org/2000/svg">
  <path
    d="M47.3722 16.1739C48.8334 15.4361 50.5584 15.4352 52.0196 16.173C52.9151 16.6251 53.6596 17.3296 54.1612 18.1984L81.3917 65.3634C81.9439 66.3199 81.6167 67.5435 80.6602 68.0958V68.0958C79.8703 68.5514 78.8606 68.2799 78.4058 67.4895L55.9727 28.5069C55.2697 27.2853 54.2252 26.2953 52.9679 25.6583C50.9104 24.6162 48.4794 24.6161 46.422 25.6583C45.1646 26.2952 44.1201 27.2853 43.4171 28.5069L20.9816 67.4912C20.5276 68.28 19.5197 68.5508 18.7315 68.0958V68.0958C17.7751 67.5435 17.4478 66.3199 18.0001 65.3634L45.2315 18.1974C45.733 17.329 46.477 16.626 47.3722 16.1739Z"
    fill="#008BBE" />
  <path fill-rule="evenodd" clip-rule="evenodd"
    d="M52.0198 28.3646C50.5585 27.6269 48.8337 27.6269 47.3724 28.3647V28.3647C46.477 28.8168 45.7329 29.5203 45.2314 30.389L18.5 76.689C17.6716 78.1239 18.1632 79.9586 19.5981 80.7871L24.7943 83.7871C26.2291 84.6155 28.0639 84.1239 28.8923 82.689L48.83 48.1558C49.2149 47.4891 50.1772 47.4891 50.5621 48.1558L70.5 82.689C71.3285 84.1239 73.1632 84.6155 74.5981 83.7871L79.7943 80.7871C81.2291 79.9586 81.7208 78.1239 80.8923 76.689L54.1611 30.3892C53.6595 29.5204 52.9153 28.8168 52.0198 28.3646V28.3646Z"
    fill="#00BBFF" />
</svg>